<svg xmlns="http://www.w3.org/2000/svg" viewBox="0 0 185.81 84.93"><title>Bilibili logo</title><path d="M591.63,545.39a18.71,18.71,0,0,1-2.24-.08c-1.41-.08-2.82-.17-4.23-.17-.91,0-.91,0-1-.91l-1.33-15.1L581.5,516.6l-.91-7.72-.83-6.72-1.49-10.45c-.5-3.73-1.08-7.38-1.83-11.12-.08-.58-.08-.66.58-.75a41.59,41.59,0,0,1,7.88-.75h.91a.89.89,0,0,1,.75.83l.33,5.72,2.32,30.95,1.16,14.19.75,8.13.5,6.47ZM489.9,479.09h1.49c.75,0,.91.25.91,1l.66,10L494.47,511l.91,10.87.66,8.38,1.33,14.44c0,.66-.08.75-.75.75l-6-.25c-.41.08-.66-.17-.66-.58l-.25-2.9c-.25-2.49-.5-5-.66-7.55L487.74,521l-1.41-11.87-1-8.38-1.08-7.63c-.5-3.4-1.08-6.89-1.66-10.29l-.42-2.32c-.08-.42,0-.58.42-.66a33.51,33.51,0,0,1,7.3-.75Zm83.47,33.44c2.07,0,2.32.08,2.66,2.07q.62,3.73,1,7.47l.91,8,1.74,17.09c.08.42,0,.58-.42.58l-6.47.75c-.66.08-.83,0-.91-.66l-3.73-19.08-2.32-12.7-.33-1.74a.51.51,0,0,1,.42-.66,49.59,49.59,0,0,1,7.47-1.16Zm-94.34,0c2.24-.08,2.49.17,2.74,2.24.58,3.4,1,6.72,1.33,10.12l1.08,10,.66,6.72.58,5.39c0,.75-.08.91-.75,1l-6.14.58c-.66.08-.83,0-.91-.66l-5.06-26.05-1.33-7.38a.56.56,0,0,1,.5-.75,49.21,49.21,0,0,1,7.3-1.16Zm31.7,25.72v10.62c.08.5-.17.75-.66.66h-2c-1.41,0-2.82.08-4.23.17-.75.08-.83.08-.91-.83l-1.33-14.94-.66-7.38-1-11.28c-.08-.91.08-1.08.83-1.16a48.86,48.86,0,0,1,7-.17l1.74.25c.66.25.75.33.75,1l.25,4.48.08,5c.08,4.56.17,9,.17,13.61Zm94.17.5V549c0,.41-.17.66-.58.58h-3c-1.16,0-2.32.08-3.4.17-.66.08-.75,0-.83-.75l-1.74-19.42-.91-9.62-.33-4.89c-.08-.66.08-.83.75-.83a34.71,34.71,0,0,1,8.3-.08c1.08.08,1.24.42,1.33,1.49l.25,11,.17,12.11ZM571,494.86a15.33,15.33,0,0,1,2.16.17.71.71,0,0,1,.66.66l1.08,11.53c.25,1,.08,1.16-.91,1.16l-2.82.17c-.58.08-.83.17-.83-.75l-1.16-9.38-.33-2.66c-.08-.5.08-.75.58-.83l1.58-.08Zm-94,0a13.7,13.7,0,0,1,1.91.17.71.71,0,0,1,.58.66l.33,2.9.83,9c.08.66.08.75-.58.75l-3.24.17c-.66.08-.75,0-.83-.66l-.75-6.64-.66-5.56c-.08-.42.08-.66.5-.66a13.71,13.71,0,0,1,1.91-.17Zm33.11,8.3v5.72c.08.91-.08.91-.83.91-1.08,0-2.07-.08-3.07-.17-.66-.08-.75-.08-.66-.75l-.25-7.05c0-1.58,0-3.15-.08-4.73-.08-.75,0-.83.75-.83a24.67,24.67,0,0,1,3.49.25c.66,0,.66.17.66.83v5.81Zm94.26.08V509c0,.75-.08.83-.83.83l-3.15-.17c-.5-.08-.75-.33-.66-.75L599.43,497c0-.66.08-.75.75-.75,1.08,0,2.07.08,3.07.17,1.24.08,1.08.33,1.08,1.24v5.56Zm-129.94,4.48c.08,1,0,1.16-1,1.24l-2,.5c-.66.25-.75.08-.83-.5l-2.07-11.7c-.25-.75-.08-.91.66-1l2.9-.5c.66-.08.83-.08.83.58.25,1.41.5,2.82.66,4.23l.83,6.64v.5Zm88.28-11.37c1.24-.25,2.57-.41,3.9-.58.41-.08.58.17.66.58l.66,4.56a61.41,61.41,0,0,1,.66,6.72v.66a.51.51,0,0,1-.42.66l-2.66.58c-.41.08-.58-.08-.66-.5l-2.16-12.36v-.33Zm-58.91,9c0,1.33-.08,2.57-.17,3.73,0,.42-.17.58-.58.66l-2.57.25c-.41.08-.58-.17-.58-.58-.17-1.24-.25-2.41-.33-3.65-.17-2.24-.33-4.56-.42-6.89l-.17-1.66c-.08-.33.08-.5.41-.5l3.4-.25c.58,0,.75.08.75.75l.25,8.13ZM597.85,504a46.39,46.39,0,0,1,0,4.81c.08.75-.08.91-.83.91l-2.32.25c-.41.08-.66-.17-.66-.58-.08-2.07-.25-4.23-.41-6.31l-.33-5.81c-.08-.41.08-.58.41-.58l3.32-.25c.58,0,.66.08.66.75a62.07,62.07,0,0,1,.17,6.8Zm-126.7,28.29a5.23,5.23,0,0,1,1,5.23,10.47,10.47,0,0,1-2.74,4.73,28,28,0,0,1-7.38,5.48,50.12,50.12,0,0,1-14.85,5.14,86.34,86.34,0,0,1-11.2,1.49c-1.16.08-2.32.08-3.49.08H430c-.66,0-.83-.17-.91-.83l-.58-8-1.58-15.85-1.74-15.1-1-8-1.08-7.72c-.58-4.23-1.33-8.46-2.07-12.7-.58-3.4-1.16-6.8-1.91-10.21-.08-.42,0-.75.41-.83l11.53-4.81a11.06,11.06,0,0,1,2.16-.75c.5-.08.75.08.66.58,0,1.33,0,2.66-.08,4.07l-.08,1.08c-.08,4.81-.08,9.62,0,14.52.08,4.23.33,8.55.58,12.78.41,6.64,1.08,13.28,1.74,19.83,0,.66.08.66.83.58a23.32,23.32,0,0,1,4.15-.33,52.84,52.84,0,0,1,13,1.58A64.82,64.82,0,0,1,464.93,528a25.94,25.94,0,0,1,4.81,3,7.18,7.18,0,0,1,1.41,1.33Zm93.51-.75a5.23,5.23,0,0,1,1.83,5.56,10.72,10.72,0,0,1-2.49,4.81,25.39,25.39,0,0,1-6.89,5.39,51.41,51.41,0,0,1-15.93,5.64,88.06,88.06,0,0,1-9.21,1.33,40.66,40.66,0,0,1-5.56.17h-2.24c-.5.08-.75-.17-.75-.66-.17-2.32-.33-4.65-.58-7l-1.33-14.19-1.41-12.36-1.74-13.94c-.25-2.41-.58-4.9-1-7.3l-1.49-9.29c-.66-4.4-1.49-8.79-2.41-13.19l-.08-.58a.55.55,0,0,1,.41-.83c4.07-1.66,8-3.49,12.11-5.06,1.08-.41,2.41-.91,2.32.08-.33,3.07-.25,6.14-.33,9.13a72.55,72.55,0,0,0,.08,7.38v1.91c0,3,.08,6,.33,8.88.17,3.9.42,7.88.75,11.78l.75,8.38a44.25,44.25,0,0,0,.5,4.65c0,.91.17.83.91.75a27.15,27.15,0,0,1,4.48-.33A59.15,59.15,0,0,1,551,525a47,47,0,0,1,9.79,3.82,20.68,20.68,0,0,1,3.9,2.74Zm-120,14.6a72.35,72.35,0,0,0,6.39-4.56,60.72,60.72,0,0,0,5.56-4.81,146.51,146.51,0,0,0-13.94-5.31l2,14.69Zm106-9c.25-.25.17-.41-.08-.58l-2-.83c-3.48-1.49-7-2.82-10.54-4l-.5-.17c-.17-.08-.33,0-.58.08l2,14.35a.7.7,0,0,0,.5-.17c3.24-2.32,6.47-4.73,9.71-7.3l1.49-1.41Z" transform="translate(-419.1 -469.53)" style="fill:#07a3d7"/></svg>