<svg xmlns="http://www.w3.org/2000/svg" shape-rendering="geometricPrecision" text-rendering="geometricPrecision" image-rendering="optimizeQuality" fill-rule="evenodd" clip-rule="evenodd" viewBox="0 0 461 512.235"><g fill-rule="nonzero"><path fill="#2DCCD3" d="M370.934 98.964c19.378 19.981 43.543 32.158 67.898 37.7v-15.005c-22.884-1.621-46.823-8.822-67.898-22.695zM230.952 0v335.533c0 43.959-31.593 72.234-70.009 72.234-12.743 0-24.844-2.978-35.363-8.483 13.346 17.041 34.421 26.843 57.531 26.843 38.417 0 70.01-28.275 70.01-72.272V18.322h60.886C312.348 12.479 310.99 6.371 309.934 0h-78.982zM181 195.062v-16.627c-7.691-1.281-15.382-1.696-21.753-1.696C72.573 176.739 0 246.296 0 332.555c0 56.626 27.559 105.033 69.444 133.685-29.18-28.953-47.276-69.481-47.276-115.362 0-86.109 72.347-155.628 158.832-155.816z"/><path fill="#F1204A" d="M318.87 329.991c0 107.144-81.96 163.921-159.209 163.921-33.44 0-64.505-10.103-90.217-27.672 28.879 28.652 68.616 45.995 112.385 45.995 77.248 0 159.208-56.777 159.208-163.921V173.723c-7.69-5.203-15.08-11.272-22.167-18.36v174.628zm-193.289 69.294c-9.426-11.914-15.043-27.334-15.043-45.43 0-50.782 39.698-77.624 92.629-72.045v-85.052c-7.69-1.282-15.381-1.697-21.79-1.697H181v68.389c-52.931-5.542-92.63 21.263-92.63 72.083 0 29.707 15.193 52.252 37.211 63.752zm313.251-262.621v63.525c-35.174 0-68.464-6.711-97.795-26.466 34.157 34.157 75.59 44.826 119.963 44.826v-78.567a137.713 137.713 0 01-22.168-3.318zm-67.898-37.701c-18.737-19.265-33.026-45.806-38.832-80.641h-18.095c10.329 37.663 31.592 63.94 56.927 80.641z"/><path d="M159.661 493.912c77.248 0 159.209-56.777 159.209-163.921V155.364c7.088 7.087 14.477 13.157 22.168 18.359 29.33 19.755 62.62 26.466 97.794 26.466v-63.525c-24.354-5.542-48.52-17.72-67.898-37.7-25.335-16.702-46.597-42.979-56.928-80.641H253.12v335.533c0 43.996-31.593 72.271-70.009 72.271-23.111 0-44.185-9.801-57.531-26.842-22.017-11.499-37.21-34.044-37.21-63.751 0-50.821 39.698-77.626 92.63-72.084v-68.388c-86.485.189-158.832 69.708-158.832 155.815 0 45.882 18.096 86.409 47.277 115.363 25.711 17.569 56.776 27.672 90.216 27.672z"/></g></svg>