<svg width="100" height="100" viewBox="0 0 100 100" fill="none" xmlns="http://www.w3.org/2000/svg">
<path d="M0 48C0 25.37 0 14.06 7.03 7.03C14.06 0 25.37 0 48 0H52C74.63 0 85.94 0 92.97 7.03C100 14.06 100 25.37 100 48V52C100 74.63 100 85.94 92.97 92.97C85.94 100 74.63 100 52 100H48C25.37 100 14.06 100 7.03 92.97C0 85.94 0 74.63 0 52V48Z" fill="#0077FF"/>
<path d="M58.3302 0C39.8602 0.06 30.0302 0.68 23.6902 7.02C16.6602 14.05 16.6602 25.36 16.6602 47.99V51.99C16.6602 74.62 16.6602 85.93 23.6902 92.96C30.0302 99.3 39.8602 99.92 58.3302 99.98C76.8002 99.92 86.6302 99.3 92.9702 92.96C100 85.93 100 74.62 100 51.99V47.99C100 25.36 100 14.05 92.9702 7.02C86.6302 0.69 76.8002 0.07 58.3302 0Z" fill="#FF2B42"/>
<path d="M70.5598 41.11C75.6198 44.03 78.1398 45.49 78.9898 47.39C79.7298 49.05 79.7298 50.95 78.9898 52.61C78.1398 54.52 75.6098 55.97 70.5598 58.89L56.7098 66.89C51.6498 69.81 49.1298 71.27 47.0498 71.05C45.2398 70.86 43.5998 69.91 42.5298 68.44C41.2998 66.75 41.2998 63.83 41.2998 58V42C41.2998 36.16 41.2998 33.24 42.5298 31.56C43.5998 30.09 45.2398 29.14 47.0498 28.95C49.1198 28.73 51.6498 30.19 56.7098 33.11L70.5598 41.11Z" fill="white"/>
</svg>